<svg width="20" height="21" viewBox="0 0 20 21" fill="none" xmlns="http://www.w3.org/2000/svg">
<path d="M11.6667 8.94686V14.7802M8.33337 8.94686V14.7802M5.00004 5.61353V15.4469C5.00004 16.3803 5.00004 16.8467 5.1817 17.2032C5.34149 17.5168 5.59627 17.7723 5.90987 17.932C6.26604 18.1135 6.73254 18.1135 7.66413 18.1135H12.3359C13.2675 18.1135 13.7334 18.1135 14.0895 17.932C14.4031 17.7723 14.6588 17.5168 14.8186 17.2032C15 16.847 15 16.381 15 15.4494V5.61353M5.00004 5.61353H6.66671M5.00004 5.61353H3.33337M6.66671 5.61353H13.3334M6.66671 5.61353C6.66671 4.83696 6.66671 4.44886 6.79357 4.14258C6.96273 3.7342 7.28697 3.40955 7.69535 3.24039C8.00164 3.11353 8.39014 3.11353 9.16671 3.11353H10.8334C11.6099 3.11353 11.9982 3.11353 12.3045 3.24039C12.7129 3.40955 13.0373 3.7342 13.2064 4.14258C13.3333 4.44886 13.3334 4.83696 13.3334 5.61353M13.3334 5.61353H15M15 5.61353H16.6667" stroke="#141414" stroke-width="1.5" stroke-linecap="round" stroke-linejoin="round"/>
</svg>
