<?xml version="1.0" standalone="no"?>
<!DOCTYPE svg PUBLIC "-//W3C//DTD SVG 20010904//EN"
 "http://www.w3.org/TR/2001/REC-SVG-20010904/DTD/svg10.dtd">
<svg version="1.0" xmlns="http://www.w3.org/2000/svg"
 width="128.000000pt" height="128.000000pt" viewBox="0 0 128.000000 128.000000"
 preserveAspectRatio="xMidYMid meet">

<g transform="translate(0.000000,128.000000) scale(0.100000,-0.100000)"
fill="#ffffffff" stroke="none">
<path d="M524 1185 c-125 -27 -263 -124 -332 -232 -17 -27 -34 -43 -47 -43
-31 0 -83 -36 -105 -72 -39 -64 -16 -172 43 -199 18 -8 25 -24 35 -77 20 -104
65 -187 146 -268 82 -83 165 -129 270 -150 43 -10 80 -24 94 -37 32 -30 103
-30 133 0 33 32 19 69 -34 92 l-42 18 43 5 c57 8 158 57 211 104 62 53 116
143 137 223 17 65 19 67 49 68 142 4 186 198 63 273 -18 11 -42 20 -53 20 -13
0 -30 16 -47 43 -42 65 -136 151 -207 187 -112 56 -235 72 -357 45z m288 -44
c85 -33 174 -96 224 -160 50 -64 53 -76 22 -85 -17 -4 -27 0 -37 17 -34 52
-126 130 -186 158 -129 61 -261 61 -390 0 -60 -28 -152 -106 -186 -158 -10
-17 -20 -21 -36 -17 -31 8 -29 18 12 74 63 86 164 153 278 185 75 21 225 14
299 -14z m2 -89 c306 -143 339 -551 60 -742 -133 -92 -335 -92 -468 0 -221
151 -257 453 -76 644 53 56 140 109 206 126 22 5 78 8 126 6 71 -3 98 -9 152
-34z m-597 -180 c9 -6 8 -23 -7 -71 -11 -34 -20 -85 -20 -112 0 -47 -1 -49
-27 -49 -58 0 -123 64 -123 120 0 35 31 90 59 105 28 15 98 20 118 7z m962 -7
c28 -14 61 -68 61 -99 0 -60 -65 -126 -122 -126 -27 0 -28 2 -28 49 0 27 -9
78 -20 112 -15 48 -16 65 -7 71 20 13 86 9 116 -7z m-975 -316 c20 -79 74
-167 136 -223 74 -66 203 -115 309 -116 l36 -1 -32 -14 c-18 -8 -33 -19 -33
-25 0 -28 -127 1 -220 51 -112 59 -198 161 -240 284 -27 80 -27 110 3 111 21
1 25 -6 41 -67z m532 -383 c30 -23 7 -51 -41 -51 -48 0 -71 28 -41 51 25 18
57 18 82 0z"/>
<path d="M370 837 c-102 -54 -119 -189 -34 -269 48 -44 72 -48 306 -48 201 0
226 2 262 20 122 59 125 234 6 297 -41 22 -52 23 -270 23 -218 0 -229 -1 -270
-23z m531 -22 c92 -48 92 -202 0 -250 -44 -22 -478 -22 -522 0 -89 47 -93 193
-6 245 29 18 52 20 265 20 191 0 238 -3 263 -15z"/>
<path d="M440 773 c-89 -33 -74 -163 19 -163 46 0 68 15 81 54 15 46 -7 89
-51 105 -18 6 -32 11 -33 10 -1 0 -8 -3 -16 -6z m58 -39 c12 -8 22 -26 22 -40
0 -29 -32 -64 -60 -64 -11 0 -29 9 -40 20 -11 11 -20 29 -20 40 0 25 34 60 58
60 10 0 28 -7 40 -16z"/>
<path d="M784 766 c-42 -18 -61 -65 -44 -106 35 -84 160 -60 160 31 0 61 -60
99 -116 75z m76 -36 c11 -11 20 -29 20 -40 0 -11 -9 -29 -20 -40 -11 -11 -29
-20 -40 -20 -28 0 -60 35 -60 64 0 27 33 56 62 56 10 0 27 -9 38 -20z"/>
<path d="M541 446 c-16 -19 0 -58 35 -85 53 -42 141 -17 165 47 16 42 -3 52
-101 52 -62 0 -91 -4 -99 -14z m179 -22 c0 -18 -23 -43 -50 -54 -24 -10 -36
-10 -60 0 -27 11 -50 36 -50 54 0 3 36 6 80 6 44 0 80 -3 80 -6z"/>
</g>
</svg>
