<svg width="20" height="21" viewBox="0 0 20 21" fill="none" xmlns="http://www.w3.org/2000/svg">
<path d="M10 7.28028L3.33337 13.9469V17.2803L6.66671 17.2803L13.3334 10.6136M10 7.28028L12.3906 4.88973L12.392 4.88832C12.7211 4.55925 12.8859 4.39442 13.0759 4.33269C13.2433 4.27831 13.4236 4.27831 13.5909 4.33269C13.7808 4.39438 13.9454 4.55902 14.274 4.88762L15.7239 6.33745C16.0539 6.66746 16.219 6.83255 16.2808 7.02282C16.3352 7.19019 16.3352 7.37048 16.2808 7.53785C16.219 7.72798 16.0542 7.89282 15.7246 8.22236L15.7239 8.22307L13.3334 10.6136M10 7.28028L13.3334 10.6136" stroke="#141414" stroke-width="1.5" stroke-linecap="round" stroke-linejoin="round"/>
</svg>
