<svg width="100" height="24" viewBox="0 0 100 24" fill="none" xmlns="http://www.w3.org/2000/svg">
<path d="M0.5 11.5409C0.5 10.0186 0.776959 8.5904 1.33093 7.2564C1.90116 5.90668 2.68322 4.73745 3.67709 3.74872C4.67093 2.74428 5.84401 1.95174 7.19633 1.37104C8.54861 0.790338 10.015 0.5 11.5954 0.5C13.1758 0.5 14.634 0.790338 15.97 1.37104C17.3223 1.93604 18.4872 2.72075 19.4648 3.72517C20.4586 4.71392 21.2326 5.88313 21.7865 7.23285C22.3405 8.56687 22.6173 9.99503 22.6173 11.5174V21.6638C22.6173 22.1189 22.4627 22.4955 22.1531 22.7937C21.8598 23.0762 21.4769 23.2175 21.0044 23.2175C20.5482 23.2175 20.1572 23.0762 19.8314 22.7937C19.5218 22.4955 19.367 22.1189 19.367 21.6638V11.6351C19.367 10.5365 19.1715 9.50852 18.7805 8.55118C18.4057 7.57813 17.8681 6.73064 17.1675 6.0087C16.4832 5.28676 15.6604 4.72176 14.6991 4.31371C13.7542 3.88996 12.7196 3.67809 11.5954 3.67809C10.4712 3.67809 9.42842 3.88213 8.46716 4.29018C7.52218 4.69823 6.69939 5.25538 5.9988 5.96162C5.2982 6.66787 4.75242 7.50749 4.36136 8.48055C3.97036 9.43789 3.77484 10.4659 3.77484 11.5645V21.6638C3.77484 22.1189 3.62821 22.4955 3.33494 22.7937C3.04166 23.0762 2.65879 23.2175 2.18628 23.2175C1.74638 23.2175 1.35535 23.0762 1.0132 22.7937C0.671075 22.4955 0.5 22.1189 0.5 21.6638V11.5409ZM30.7792 13.4478C30.9096 14.4365 31.2109 15.3624 31.6834 16.2256C32.1721 17.0732 32.7913 17.8186 33.5408 18.462C34.2903 19.09 35.1374 19.5842 36.0824 19.9453C37.0436 20.3061 38.0539 20.4867 39.113 20.4867C39.6017 20.4867 40.0334 20.471 40.4081 20.4397C40.7992 20.3924 41.1576 20.3298 41.4834 20.2512C41.8255 20.1572 42.1514 20.0393 42.4609 19.898C42.787 19.757 43.1209 19.5921 43.463 19.4038C43.6421 19.2939 43.8133 19.2233 43.9762 19.1919C44.1554 19.1447 44.3183 19.1213 44.465 19.1213C44.9212 19.1213 45.2961 19.2939 45.5891 19.6391C45.8987 19.9846 46.0536 20.3611 46.0536 20.7692C46.0536 21.0045 45.9883 21.24 45.8582 21.4753C45.7441 21.6952 45.5486 21.8834 45.2716 22.0404C44.8479 22.2759 44.4162 22.4878 43.9762 22.676C43.5526 22.8643 43.0966 23.0212 42.6076 23.1468C42.1188 23.2568 41.5893 23.3431 41.0192 23.4057C40.4489 23.4687 39.8135 23.5 39.113 23.5C37.4673 23.5 35.9195 23.2018 34.4695 22.6054C33.0195 21.9933 31.7484 21.1694 30.6568 20.1335C29.5817 19.0977 28.7263 17.8815 28.0909 16.4846C27.4718 15.0878 27.1622 13.5969 27.1622 12.0118C27.1622 10.4266 27.4718 8.93568 28.0909 7.53888C28.7263 6.14211 29.5817 4.92579 30.6568 3.88996C31.7484 2.83844 33.0195 2.01451 34.4695 1.41812C35.9195 0.806031 37.4673 0.5 39.113 0.5C40.7422 0.5 42.2817 0.806031 43.732 1.41812C45.182 2.01451 46.4445 2.83061 47.5199 3.86644C48.6115 4.90224 49.4751 6.11855 50.1105 7.51535C50.7459 8.89643 51.0718 10.3717 51.088 11.9411C51.088 12.3649 50.9414 12.7259 50.6481 13.024C50.3548 13.3065 49.9719 13.4478 49.4994 13.4478H30.7792ZM47.7644 10.8112C47.634 9.77533 47.3244 8.81797 46.8357 7.9391C46.3469 7.04453 45.7195 6.27551 44.9537 5.63204C44.188 4.97287 43.3083 4.45497 42.3143 4.07831C41.3368 3.70164 40.286 3.5133 39.1618 3.5133C38.0376 3.5133 36.9786 3.70948 35.9848 4.10184C35.007 4.4785 34.1436 4.99642 33.3941 5.65557C32.6446 6.31473 32.0337 7.09161 31.5612 7.98617C31.0888 8.86505 30.7955 9.80672 30.6813 10.8112H47.7644ZM53.8486 2.78353C53.7348 2.5638 53.6777 2.33623 53.6777 2.10081C53.6777 1.70845 53.8244 1.35534 54.1177 1.04145C54.4272 0.711872 54.8344 0.54708 55.3394 0.54708C55.649 0.54708 55.9343 0.633405 56.1948 0.806031C56.4556 0.962988 56.6593 1.19841 56.8059 1.51228L63.8199 18.0385L70.8095 1.51228C70.9399 1.19841 71.1354 0.962988 71.3961 0.806031C71.6729 0.633405 71.9662 0.54708 72.2758 0.54708C72.7645 0.54708 73.1637 0.711872 73.4733 1.04145C73.7828 1.35534 73.9378 1.70845 73.9378 2.10081C73.9378 2.32054 73.8887 2.54811 73.7911 2.78353L65.3106 22.4171C65.1315 22.6997 64.936 22.9349 64.724 23.1232C64.5123 23.2961 64.2028 23.3824 63.7953 23.3824C63.4695 23.3824 63.1682 23.2961 62.8912 23.1232C62.6304 22.9349 62.4349 22.6997 62.3046 22.4171L53.8486 2.78353ZM78.8979 12.0353C78.8979 13.1653 79.1261 14.2403 79.5821 15.2605C80.0383 16.2649 80.6574 17.1516 81.4395 17.9206C82.2215 18.6739 83.1339 19.2703 84.1768 19.7097C85.2359 20.1492 86.368 20.3691 87.5738 20.3691C88.7958 20.3691 89.9362 20.1492 90.9953 19.7097C92.0544 19.2703 92.9668 18.6739 93.7323 17.9206C94.5144 17.1516 95.1255 16.2649 95.5655 15.2605C96.0217 14.2403 96.2497 13.1653 96.2497 12.0353C96.2497 10.8896 96.0217 9.80672 95.5655 8.78658C95.1255 7.76645 94.5144 6.87974 93.7323 6.12641C92.9668 5.37309 92.0544 4.77669 90.9953 4.33726C89.9362 3.89782 88.7958 3.67809 87.5738 3.67809C86.368 3.67809 85.2359 3.89782 84.1768 4.33726C83.1339 4.77669 82.2215 5.37309 81.4395 6.12641C80.6574 6.87974 80.0383 7.76645 79.5821 8.78658C79.1261 9.80672 78.8979 10.8896 78.8979 12.0353ZM75.6475 12.0353C75.6475 10.4345 75.9571 8.93568 76.5762 7.53888C77.2116 6.12641 78.067 4.90224 79.1423 3.86644C80.234 2.83061 81.4965 2.01451 82.9302 1.41812C84.3805 0.806031 85.9283 0.5 87.5738 0.5C89.2357 0.5 90.7916 0.806031 92.2416 1.41812C93.6918 2.01451 94.9543 2.83844 96.0297 3.88996C97.105 4.92579 97.9522 6.14211 98.5713 7.53888C99.1904 8.93568 99.5 10.4345 99.5 12.0353C99.5 13.6204 99.1904 15.1114 98.5713 16.5082C97.9522 17.8892 97.105 19.0977 96.0297 20.1335C94.9543 21.1694 93.6918 21.9933 92.2416 22.6054C90.7916 23.2018 89.2357 23.5 87.5738 23.5C85.9283 23.5 84.3805 23.2018 82.9302 22.6054C81.4965 21.9933 80.234 21.1694 79.1423 20.1335C78.067 19.0977 77.2116 17.8892 76.5762 16.5082C75.9571 15.1114 75.6475 13.6204 75.6475 12.0353Z" fill="#1B1B1B"/>
</svg>
