<?xml version="1.0" standalone="no"?>
<!DOCTYPE svg PUBLIC "-//W3C//DTD SVG 20010904//EN"
 "http://www.w3.org/TR/2001/REC-SVG-20010904/DTD/svg10.dtd">
<svg version="1.0" xmlns="http://www.w3.org/2000/svg"
 width="24.000000pt" height="24.000000pt" viewBox="0 0 24.000000 24.000000"
 preserveAspectRatio="xMidYMid meet">

<g transform="translate(0.000000,24.000000) scale(0.100000,-0.100000)"
fill="#ffffffff" stroke="none">
<path d="M30 188 c-10 -20 -9 -21 2 -7 8 9 22 19 33 22 18 4 18 5 -2 6 -14 1
-26 -7 -33 -21z"/>
<path d="M92 198 c-7 -7 -12 -17 -12 -22 0 -6 5 -3 11 7 5 9 19 17 29 17 10 0
24 -8 29 -17 6 -10 11 -13 11 -7 0 15 -22 34 -40 34 -9 0 -21 -5 -28 -12z"/>
<path d="M175 203 c11 -3 25 -13 33 -22 11 -14 12 -13 2 7 -7 14 -19 22 -33
21 -20 -1 -20 -2 -2 -6z"/>
<path d="M17 133 c-10 -13 -16 -34 -14 -46 4 -19 4 -19 6 4 1 29 15 45 46 51
20 4 20 4 0 9 -14 4 -26 -1 -38 -18z"/>
<path d="M84 148 c3 -10 1 -18 -4 -18 -13 0 -40 -54 -40 -80 0 -18 6 -20 80
-20 74 0 80 2 80 20 0 26 -27 80 -40 80 -5 0 -7 8 -4 18 5 14 4 15 -5 2 -8
-11 -7 -18 3 -25 17 -13 36 -50 36 -69 0 -13 -13 -16 -70 -16 -57 0 -70 3 -70
16 0 19 19 56 36 69 10 7 11 14 3 25 -9 13 -10 12 -5 -2z"/>
<path d="M185 149 c-20 -8 -20 -8 0 -8 12 -1 27 -7 35 -13 12 -11 12 -10 0 7
-8 11 -14 21 -15 21 0 1 -9 -2 -20 -7z"/>
<path d="M232 90 c0 -14 2 -19 5 -12 2 6 2 18 0 25 -3 6 -5 1 -5 -13z"/>
</g>
</svg>
